# xmcd
#
# Track frame offsets: 
#        150
#        13912
#        26937
#        43712
#        61525
#        80737
#        96962
#        108325
#        127762
#        144862
#
# Disc length: 2102 seconds
#
# Revision: 3
# Processed by: cddbd v1.5.2PL0 Copyright (c) Steve Scherf et al.
# Submitted via: ExactAudioCopyFreeDBPlugin 1.0
#
DISCID=7c08340a
DTITLE=林子祥 - 分分鐘回味的情歌
DYEAR=1900
DGENRE=Pop
TTITLE0=分分鐘需要你
TTITLE1=七月初七
TTITLE2=在水中央
TTITLE3=我要走天涯
TTITLE4=美麗的小姑娘
TTITLE5=海市蜃樓
TTITLE6=一個人
TTITLE7=世運在莫斯科
TTITLE8=幾段情歌
TTITLE9=愛的種子
EXTD=
EXTT0=
EXTT1=
EXTT2=
EXTT3=
EXTT4=
EXTT5=
EXTT6=
EXTT7=
EXTT8=
EXTT9=
PLAYORDER=
